<svg width="36" height="36" viewBox="0 0 36 36" fill="none" xmlns="http://www.w3.org/2000/svg">
<path d="M19.8675 9.47428H16.3883V16.4328H9.42983V19.912H16.3883V26.8705H19.8675V19.912H26.826V16.4328H19.8675V9.47428ZM18.1279 0.776184C8.52523 0.776184 0.731735 8.56968 0.731735 18.1724C0.731735 27.7751 8.52523 35.5686 18.1279 35.5686C27.7306 35.5686 35.5241 27.7751 35.5241 18.1724C35.5241 8.56968 27.7306 0.776184 18.1279 0.776184ZM18.1279 32.0893C10.4562 32.0893 4.21097 25.8441 4.21097 18.1724C4.21097 10.5007 10.4562 4.25542 18.1279 4.25542C25.7996 4.25542 32.0449 10.5007 32.0449 18.1724C32.0449 25.8441 25.7996 32.0893 18.1279 32.0893Z" fill="#878787"/>
</svg>
