<svg width="36" height="33" viewBox="0 0 36 33" fill="none" xmlns="http://www.w3.org/2000/svg">
<path d="M25.7037 0.211365C22.6768 0.211365 19.7716 1.62046 17.8754 3.84717C15.9792 1.62046 13.0741 0.211365 10.0471 0.211365C4.68912 0.211365 0.47924 4.42124 0.47924 9.77927C0.47924 16.355 6.39394 21.7131 15.353 29.8545L17.8754 32.1334L20.3979 29.8371C29.3569 21.7131 35.2716 16.355 35.2716 9.77927C35.2716 4.42124 31.0617 0.211365 25.7037 0.211365ZM18.0494 27.2624L17.8754 27.4364L17.7015 27.2624C9.42088 19.7647 3.95848 14.8068 3.95848 9.77927C3.95848 6.30003 6.56791 3.6906 10.0471 3.6906C12.7262 3.6906 15.3356 5.41282 16.2576 7.7961H19.5107C20.4153 5.41282 23.0247 3.6906 25.7037 3.6906C29.1829 3.6906 31.7924 6.30003 31.7924 9.77927C31.7924 14.8068 26.33 19.7647 18.0494 27.2624Z" fill="white"/>
</svg>
