<svg width="360" height="85" viewBox="0 0 360 85" fill="none" xmlns="http://www.w3.org/2000/svg">
<path d="M0 0H360V85H0V0Z" fill="#2C2C2C"/>
<path d="M50.7037 25.2114C47.6768 25.2114 44.7716 26.6205 42.8754 28.8472C40.9792 26.6205 38.0741 25.2114 35.0471 25.2114C29.6891 25.2114 25.4792 29.4212 25.4792 34.7793C25.4792 41.355 31.3939 46.7131 40.353 54.8545L42.8754 57.1334L45.3979 54.8371C54.3569 46.7131 60.2716 41.355 60.2716 34.7793C60.2716 29.4212 56.0617 25.2114 50.7037 25.2114ZM43.0494 52.2624L42.8754 52.4364L42.7015 52.2624C34.4209 44.7647 28.9585 39.8068 28.9585 34.7793C28.9585 31.3 31.5679 28.6906 35.0471 28.6906C37.7262 28.6906 40.3356 30.4128 41.2576 32.7961H44.5107C45.4153 30.4128 48.0247 28.6906 50.7037 28.6906C54.1829 28.6906 56.7924 31.3 56.7924 34.7793C56.7924 39.8068 51.33 44.7647 43.0494 52.2624Z" fill="#878787"/>
<path d="M139.159 45.0952H137.784L137.297 44.6255C139.002 42.6424 140.028 40.0677 140.028 37.2669C140.028 31.0217 134.966 25.9594 128.721 25.9594C122.476 25.9594 117.413 31.0217 117.413 37.2669C117.413 43.5122 122.476 48.5745 128.721 48.5745C131.522 48.5745 134.096 47.5481 136.079 45.8433L136.549 46.3303V47.7046L145.247 56.3853L147.839 53.7933L139.159 45.0952ZM128.721 45.0952C124.389 45.0952 120.893 41.5986 120.893 37.2669C120.893 32.9353 124.389 29.4386 128.721 29.4386C133.052 29.4386 136.549 32.9353 136.549 37.2669C136.549 41.5986 133.052 45.0952 128.721 45.0952Z" fill="#878787"/>
<path d="M232.815 23.7762H211.939C210.026 23.7762 208.46 25.3418 208.46 27.2554V55.0893C208.46 57.0029 210.026 58.5686 211.939 58.5686H232.815C234.728 58.5686 236.294 57.0029 236.294 55.0893V27.2554C236.294 25.3418 234.728 23.7762 232.815 23.7762ZM217.158 27.2554H220.637V35.9535L218.898 34.6488L217.158 35.9535V27.2554ZM232.815 55.0893H211.939V27.2554H213.679V42.912L218.898 38.9978L224.117 42.912V27.2554H232.815V55.0893Z" fill="#878787"/>
<path d="M313.868 32.4743H310.388V39.4328H303.43V42.912H310.388V49.8705H313.868V42.912H320.826V39.4328H313.868V32.4743ZM312.128 23.7762C302.525 23.7762 294.732 31.5697 294.732 41.1724C294.732 50.7751 302.525 58.5686 312.128 58.5686C321.731 58.5686 329.524 50.7751 329.524 41.1724C329.524 31.5697 321.731 23.7762 312.128 23.7762ZM312.128 55.0893C304.456 55.0893 298.211 48.8441 298.211 41.1724C298.211 33.5007 304.456 27.2554 312.128 27.2554C319.8 27.2554 326.045 33.5007 326.045 41.1724C326.045 48.8441 319.8 55.0893 312.128 55.0893Z" fill="#878787"/>
</svg>
