<svg width="31" height="32" viewBox="0 0 31 32" fill="none" xmlns="http://www.w3.org/2000/svg">
<path d="M22.1585 20.0952H20.7842L20.2971 19.6255C22.002 17.6424 23.0283 15.0677 23.0283 12.2669C23.0283 6.0217 17.966 0.959412 11.7208 0.959412C5.47559 0.959412 0.413298 6.0217 0.413298 12.2669C0.413298 18.5122 5.47559 23.5745 11.7208 23.5745C14.5216 23.5745 17.0962 22.5481 19.0794 20.8433L19.5491 21.3303V22.7046L28.2472 31.3853L30.8392 28.7933L22.1585 20.0952ZM11.7208 20.0952C7.38917 20.0952 3.89253 16.5986 3.89253 12.2669C3.89253 7.93528 7.38917 4.43865 11.7208 4.43865C16.0525 4.43865 19.5491 7.93528 19.5491 12.2669C19.5491 16.5986 16.0525 20.0952 11.7208 20.0952Z" fill="white"/>
</svg>
